PathFileType	4	(X/Y/Z)	C:\Users\Biomechanik\SynologyDrive\AlexP\Athlete_03\Athlete_3_25_03_31\Deadlift_bw_02\marker_experimental.trc
DataRate	CameraRate	NumFrames	NumMarkers	Units	OrigDataRate	OrigDataStartFrame	OrigNumFrames
200.000000	200.000000	4	55	mm	200.000000	676	1804
Frame#	Time	BL			BR			GLAB			RFHD			LFHD			C7			T6			SPINMOL			SPINM2			SPINM3			T12			BELTOL			BELT2			BELT3			SACROL			SACR2			SACR3			LTHOL			LTH2			LTH3			LSHAOL			LSHA2			LSHA3			LHEE			LTOE			LM5			RTHOL			RTH2			RTH3			RSHAOL			RSHA2			RSHA3			RHEE			RTOE			RM5			STRN			XIPH			LACR			LUAOL			LUA2			LUA3			LLAOL			LLA2			LLA3			LWRR			LWRU			RACR			RUAOL			RUA2			RUA3			RLAOL			RLA2			RLA3			RWRR			RWRU			
		X1	Y1	Z1	X2	Y2	Z2	X3	Y3	Z3	X4	Y4	Z4	X5	Y5	Z5	X6	Y6	Z6	X7	Y7	Z7	X8	Y8	Z8	X9	Y9	Z9	X10	Y10	Z10	X11	Y11	Z11	X12	Y12	Z12	X13	Y13	Z13	X14	Y14	Z14	X15	Y15	Z15	X16	Y16	Z16	X17	Y17	Z17	X18	Y18	Z18	X19	Y19	Z19	X20	Y20	Z20	X21	Y21	Z21	X22	Y22	Z22	X23	Y23	Z23	X24	Y24	Z24	X25	Y25	Z25	X26	Y26	Z26	X27	Y27	Z27	X28	Y28	Z28	X29	Y29	Z29	X30	Y30	Z30	X31	Y31	Z31	X32	Y32	Z32	X33	Y33	Z33	X34	Y34	Z34	X35	Y35	Z35	X36	Y36	Z36	X37	Y37	Z37	X38	Y38	Z38	X39	Y39	Z39	X40	Y40	Z40	X41	Y41	Z41	X42	Y42	Z42	X43	Y43	Z43	X44	Y44	Z44	X45	Y45	Z45	X46	Y46	Z46	X47	Y47	Z47	X48	Y48	Z48	X49	Y49	Z49	X50	Y50	Z50	X51	Y51	Z51	X52	Y52	Z52	X53	Y53	Z53	X54	Y54	Z54	X55	Y55	Z55	

677	3.38	1214.24609375	39.25208663940444	-2269.227783203125	1226.85693359375	29.82372283935548	-248.8359069824219	302.0774841308594	1635.34521484375	-1196.132690429688	248.5497589111328	1651.401000976562	-1132.407592773438	253.5217437744141	1649.31689453125	-1267.811889648438	104.7675552368164	1438.269653320312	-1203.085571289062	77.44103240966797	1260.323974609375	-1211.82275390625	78.10474395751953	1226.583129882812	-1234.53955078125	74.23069000244141	1216.006103515625	-1185.294555664062	88.59496307373047	1162.445190429688	-1221.810180664062	102.8035659790039	1108.99267578125	-1220.468627929688	77.51660919189453	1084.790649414062	-1235.779174804688	78.83085632324219	1081.2763671875	-1185.6416015625	72.42386627197266	1021.805541992188	-1215.763061523438	74.73385620117188	960.7702636718751	-1239.203491210938	76.15082550048828	957.4626464843751	-1187.917114257812	51.43459701538086	902.9064331054689	-1216.14990234375	166.4061737060547	684.5776977539064	-1406.429565429688	115.7627944946289	631.5721435546876	-1375.062133789062	162.5408325195312	624.7727050781251	-1392.496337890625	141.698974609375	327.341033935547	-1407.107177734375	93.1614990234375	264.9739074707032	-1395.776611328125	142.6360931396484	265.5576171875001	-1403.216064453125	75.89022827148438	68.09764099121102	-1320.488159179688	293.3301391601562	49.19727706909188	-1332.759399414062	242.3828582763672	28.83836555480966	-1432.294799804688	151.6990966796875	698.2119140625001	-1025.839965820312	205.5151672363281	640.3547973632814	-1014.935974121094	158.7775268554688	637.0108642578126	-1031.836547851562	123.0381317138672	344.8456726074219	-1017.224670410156	155.6764068603516	273.2713928222657	-1012.931945800781	109.7153015136719	284.3041687011719	-1027.8935546875	75.1668701171875	61.47302627563484	-1113.433471679688	289.0510864257812	48.53268051147467	-1101.84375	236.6773529052734	38.69435882568366	-1001.862609863281	287.8058776855469	1367.05712890625	-1207.731567382812	338.2996215820312	1235.84716796875	-1208.845458984375	203.8901824951172	1403.435791015625	-1384.382568359375	255.7532501220703	1250.185180664062	-1486.357666015625	261.9474487304688	1189.11962890625	-1509.84814453125	293.574462890625	1199.641967773438	-1469.39306640625	319.3582763671875	985.8814697265626	-1504.49609375	282.1258850097656	919.3924560546876	-1526.260131835938	326.2485046386719	924.1827392578126	-1502.559204101562	340.2918395996094	816.2018432617189	-1494.033325195312	331.24072265625	824.4588012695314	-1416.83251953125	216.5462493896484	1401.119506835938	-1032.959838867188	247.98388671875	1243.847778320312	-939.0845947265624	281.0328063964844	1186.502563476562	-946.8151245117186	238.8804626464844	1182.570922851562	-915.2728881835936	299.0528564453125	962.2481689453125	-925.9512939453124	359.0456848144531	912.0631713867189	-940.310546875	310.720947265625	900.8448486328126	-933.5552368164062	348.4513244628906	817.1369018554689	-952.3397216796875	345.2294006347656	815.2593383789064	-1030.941528320312	
678	3.385	1214.246215820312	39.25217819213881	-2269.227783203125	1226.856689453125	29.8234272003174	-248.83642578125	302.1346130371094	1635.399047851562	-1196.056396484375	248.6061401367188	1651.427368164062	-1132.326171875	253.5602111816406	1649.339233398438	-1267.729370117188	104.8601989746094	1438.354736328125	-1203.000122070312	77.39262390136719	1260.411865234375	-1211.741577148438	78.03748321533203	1226.66259765625	-1234.460083007812	74.16564178466797	1216.08251953125	-1185.216796875	88.49681091308594	1162.517333984375	-1221.741088867188	102.6805648803711	1109.04931640625	-1220.404174804688	77.41543579101562	1084.857177734375	-1235.69482421875	78.72059631347656	1081.328491210938	-1185.573608398438	72.27734375	1021.864440917969	-1215.70068359375	74.58038330078125	960.8135986328126	-1239.150024414062	76.00432586669922	957.5064697265626	-1187.865356445312	51.26663589477539	902.9684448242189	-1216.08837890625	166.2100219726562	684.5948486328126	-1406.43310546875	115.5853729248047	631.5762329101564	-1375.045043945312	162.3610534667969	624.7838745117189	-1392.492919921875	141.5708770751953	327.3472290039064	-1407.10986328125	93.06110382080078	264.960174560547	-1395.764404296875	142.5305480957031	265.5635070800782	-1403.219970703125	75.88100433349609	68.0887985229493	-1320.498779296875	293.323486328125	49.20621109008797	-1332.775146484375	242.3610534667969	28.84488868713388	-1432.304443359375	151.6080627441406	698.2130737304689	-1025.819702148438	205.4262237548828	640.3550415039064	-1014.941772460938	158.6820831298828	637.0119628906251	-1031.823364257812	122.9635925292969	344.8357849121094	-1017.202697753906	155.6145324707031	273.2696838378907	-1012.911010742188	109.6507720947266	284.2932434082032	-1027.8720703125	75.15419769287109	61.45586395263679	-1113.417846679688	289.0444641113281	48.54045867919928	-1101.836669921875	236.6736145019531	38.69980621337897	-1001.849060058594	287.82421875	1366.970947265625	-1207.653686523438	338.1939697265625	1235.707763671875	-1208.793334960938	203.9668731689453	1403.459350585938	-1384.289672851562	255.7525634765625	1250.213745117188	-1486.303833007812	261.9769287109375	1189.168212890625	-1509.916015625	293.533203125	1199.641479492188	-1469.345581054688	319.1883239746094	985.8893432617189	-1504.569458007812	281.9173583984375	919.4391479492189	-1526.395751953125	326.0290222167969	924.1903076171876	-1502.674194335938	340.0206909179688	816.1953125000001	-1494.238647460938	330.9032287597656	824.3879394531251	-1417.0205078125	216.6019897460938	1401.065307617188	-1032.890869140625	247.9821624755859	1243.777587890625	-939.0263671874999	281.0217590332031	1186.411010742188	-946.7698364257811	238.8778686523438	1182.521362304688	-915.1812744140624	298.8949584960938	962.1488647460938	-925.8771972656249	358.8435668945312	911.9211425781251	-940.2625122070312	310.5240783691406	900.7380371093751	-933.4823608398438	348.1966552734375	817.0072021484376	-952.2846069335938	344.9177551269531	815.1322631835939	-1030.886840820312	
679	3.39	1214.246215820312	39.252468109131	-2269.227783203125	1226.8564453125	29.82329559326173	-248.8370819091797	302.2063903808594	1635.44482421875	-1195.978637695312	248.6767730712891	1651.449462890625	-1132.24609375	253.6172485351562	1649.357299804688	-1267.646728515625	104.9539108276367	1438.434692382812	-1202.915893554688	77.35157775878906	1260.495483398438	-1211.661987304688	77.97784423828125	1226.73828125	-1234.382568359375	74.10890960693359	1216.156005859375	-1185.140869140625	88.40745544433594	1162.586303710938	-1221.67333984375	102.5685729980469	1109.106811523438	-1220.339111328125	77.32895660400391	1084.921508789062	-1235.6083984375	78.62222290039062	1081.381591796875	-1185.5048828125	72.14163208007812	1021.924072265625	-1215.636962890625	74.43707275390625	960.8601684570314	-1239.089477539062	75.86403656005859	957.5500488281251	-1187.8076171875	51.11103820800781	903.0296630859376	-1216.024047851562	166.0078277587891	684.6156005859376	-1406.432495117188	115.4028625488281	631.5865478515626	-1375.02001953125	162.1746520996094	624.7996215820314	-1392.484619140625	141.4298095703125	327.3558654785157	-1407.106811523438	92.9510498046875	264.9471435546876	-1395.742309570312	142.4142608642578	265.5715942382814	-1403.220336914062	75.87254333496094	68.08090972900399	-1320.507934570312	293.3170471191406	49.21383285522469	-1332.790405273438	242.3432464599609	28.84621810913095	-1432.311767578125	151.52490234375	698.2141113281251	-1025.801879882812	205.3430023193359	640.3544921875001	-1014.949645996094	158.5928497314453	637.0131225585939	-1031.813598632812	122.8901290893555	344.8272399902344	-1017.186889648438	155.5528106689453	273.2686767578126	-1012.894592285156	109.587287902832	284.2834167480469	-1027.856323242188	75.14768981933594	61.43723678588874	-1113.406982421875	289.0387268066406	48.54655075073249	-1101.831298828125	236.6700897216797	38.70660018920905	-1001.836853027344	287.8460693359375	1366.888305664062	-1207.577392578125	338.0964965820312	1235.574829101562	-1208.741577148438	204.0434265136719	1403.483276367188	-1384.199340820312	255.7478790283203	1250.240844726562	-1486.25390625	261.9991455078125	1189.214599609375	-1509.983032226562	293.4886474609375	1199.639770507812	-1469.302490234375	319.0101928710938	985.8920288085939	-1504.640258789062	281.6983032226562	919.4828491210939	-1526.527709960938	325.8004760742188	924.1896972656251	-1502.784057617188	339.7411804199219	816.1838378906251	-1494.435913085938	330.5446166992188	824.3132324218751	-1417.20166015625	216.65625	1401.01123046875	-1032.820678710938	247.9693603515625	1243.706665039062	-938.9630126953124	281.0048217773438	1186.315307617188	-946.7102050781249	238.8636627197266	1182.473510742188	-915.0934448242186	298.7208862304688	962.04736328125	-925.8004150390624	358.6262512207031	911.7769165039064	-940.2081909179688	310.3102416992188	900.6295166015626	-933.4077758789062	347.9248962402344	816.8748779296876	-952.2260131835938	344.5928344726562	815.0030517578126	-1030.828369140625	
680	3.395	1214.246337890625	39.2529792785646	-2269.22802734375	1226.856323242188	29.82338714599611	-248.8378601074219	302.292236328125	1635.482666015625	-1195.89990234375	248.7611083984375	1651.467163085938	-1132.16748046875	253.6921539306641	1649.370849609375	-1267.564086914062	105.0486373901367	1438.509521484375	-1202.8330078125	77.31749725341797	1260.575439453125	-1211.584350585938	77.92543792724609	1226.810668945312	-1234.307006835938	74.06070709228516	1216.227294921875	-1185.06689453125	88.32667541503906	1162.65234375	-1221.607055664062	102.4673538208008	1109.164672851562	-1220.2734375	77.25643920898438	1084.982666015625	-1235.521362304688	78.53527069091797	1081.43505859375	-1185.435791015625	72.01522827148438	1021.983947753906	-1215.572387695312	74.30345916748047	960.9098510742189	-1239.0224609375	75.72944641113281	957.5934448242189	-1187.744262695312	50.96855163574219	903.0892333984376	-1215.957275390625	165.8000640869141	684.6396484375001	-1406.427856445312	115.2163848876953	631.6028442382814	-1374.984741210938	161.9819946289062	624.8198242187501	-1392.47119140625	141.2759552001953	327.3668518066407	-1407.09765625	92.83133697509766	264.9351196289064	-1395.709716796875	142.2873382568359	265.5818481445314	-1403.216674804688	75.86495971679688	68.07407379150399	-1320.515258789062	293.3108520507812	49.22026443481453	-1332.80517578125	242.3298187255859	28.84185791015634	-1432.31640625	151.4494018554688	698.2151489257814	-1025.786499023438	205.2656097412109	640.3533325195314	-1014.959167480469	158.5099945068359	637.0145263671876	-1031.807250976562	122.8190841674805	344.8201293945313	-1017.176696777344	155.4927520751953	273.2684326171876	-1012.882629394531	109.5260467529297	284.2748107910157	-1027.845581054688	75.14842224121094	61.41672515869148	-1113.4013671875	289.0339660644531	48.55097198486335	-1101.82763671875	236.6668243408203	38.71442413330085	-1001.826110839844	287.8714294433594	1366.809204101562	-1207.502563476562	338.0068359375	1235.448608398438	-1208.690063476562	204.1194763183594	1403.507568359375	-1384.112060546875	255.7385864257812	1250.266479492188	-1486.207763671875	262.0088500976562	1189.259033203125	-1510.043090820312	293.4403686523438	1199.636840820312	-1469.264038085938	318.8234252929688	985.8901977539064	-1504.709228515625	281.4681091308594	919.5234985351564	-1526.655517578125	325.5630493164062	924.1818847656251	-1502.8896484375	339.45361328125	816.1677856445314	-1494.625	330.1668090820312	824.2350463867189	-1417.376586914062	216.7095031738281	1400.9580078125	-1032.749267578125	247.9465026855469	1243.635864257812	-938.8943481445311	280.9813842773438	1186.2177734375	-946.6364746093749	238.8392181396484	1182.428466796875	-915.0101318359374	298.5309753417969	961.9442749023438	-925.7213745117186	358.3948974609375	911.6320800781251	-940.1472778320312	310.0799255371094	900.5198364257814	-933.3316650390625	347.6370849609375	816.7407836914064	-952.1633911132812	344.2565307617188	814.8720092773439	-1030.765625	
